<?xml version="1.0" standalone="no"?>
<!DOCTYPE svg PUBLIC "-//W3C//DTD SVG 20010904//EN"
 "http://www.w3.org/TR/2001/REC-SVG-20010904/DTD/svg10.dtd">
<svg version="1.0" xmlns="http://www.w3.org/2000/svg"
 width="134.000000pt" height="125.000000pt" viewBox="0 0 134.000000 125.000000"
 preserveAspectRatio="xMidYMid meet">
<metadata>
Created by potrace 1.10, written by Peter Selinger 2001-2011
</metadata>
<g transform="translate(0.000000,125.000000) scale(0.100000,-0.100000)"
fill="#0197ba" stroke="none">
<path d="M530 1159 c-99 -27 -221 -100 -281 -167 -94 -108 -139 -228 -139
-375 0 -156 59 -289 178 -399 169 -155 405 -189 611 -87 283 140 391 486 237
761 l-24 43 43 0 c35 0 50 6 74 29 17 17 31 39 31 50 -1 21 -1 21 -12 1 -28
-51 -51 -66 -98 -64 -40 2 -52 9 -110 64 -71 68 -158 117 -247 140 -63 17
-208 19 -263 4z m235 -13 c348 -74 528 -453 368 -771 -107 -211 -364 -329
-596 -274 -255 60 -438 310 -414 566 30 321 332 546 642 479z"/>
<path d="M600 798 c-71 -20 -130 -104 -130 -184 1 -105 113 -194 218 -174 53
9 85 31 122 82 25 34 30 51 30 97 0 80 -30 128 -99 164 -57 28 -84 31 -141 15z
m130 -30 c96 -49 120 -189 46 -264 -63 -62 -191 -56 -244 11 -51 64 -52 145
-4 208 50 65 128 82 202 45z"/>
</g> 
</svg> 
